<svg id="Layer_1" data-name="Layer 1" xmlns="http://www.w3.org/2000/svg" viewBox="0 0 92.5 77.33"><defs><style>.cls-1{fill:#00d858;}</style></defs><path class="cls-1" d="M93.73,82.85A51.63,51.63,0,0,0,77.88,40.13c-11.43-10.84-27.25-17.05-42.59-19a89,89,0,0,0-22.94,0,65.75,65.75,0,0,0,14.71-9.54c.67-.54,2.12-2,1-2.85s-3.23.36-4,1A55.92,55.92,0,0,1,6.74,19.94l-.37.21c-1.94-.53-6.83,3.24-4,4.23A59.75,59.75,0,0,1,14,29.54c1.78,1.12,3.63,2.35,5.29,3.54s3.46,2.61,4.27,4.61c.51,1.18,2.87.16,3.62-.27s2.57-1.79,2.06-3c-.88-2.12-2.75-3.67-4.55-5.1a48.41,48.41,0,0,0-5.62-3.83,13.3,13.3,0,0,0-1.91-1.05,80.85,80.85,0,0,1,33.25,5.45,70.17,70.17,0,0,1,20.26,11.7A49.38,49.38,0,0,1,84.32,60,50.83,50.83,0,0,1,88,84.94c-.17,1.42,2.28.84,3,.61a3.75,3.75,0,0,0,2.72-2.7Z" transform="translate(-1.52 -8.53)"/></svg>