<?xml version="1.0" encoding="UTF-8"?><svg id="Layer_1" xmlns="http://www.w3.org/2000/svg" viewBox="0 0 68.56 97.57"><defs><style>.cls-1{fill:#00d858;}</style></defs><path class="cls-1" d="M34.28,20.23c7.69,0,13.95,6.26,13.95,13.95s-6.25,13.95-13.95,13.95-13.95-6.25-13.95-13.95,6.26-13.95,13.95-13.95Zm0,4.38c-5.3,0-9.57,4.27-9.57,9.57s4.28,9.57,9.57,9.57,9.57-4.28,9.57-9.57-4.27-9.57-9.57-9.57h0Z"/><path class="cls-1" d="M34.28,4.38C19.45,4.38,6.77,15.34,4.75,30.06c-3.17,23.64,14.24,45.52,29.53,61.62,15.28-16.09,32.7-37.99,29.53-61.62-2.02-14.72-14.7-25.68-29.53-25.68h0Zm0-4.38c17.03,0,31.54,12.59,33.85,29.48,3.57,26.56-16.02,49.94-33.19,67.81-.37,.38-.97,.38-1.34,0C16.44,79.41-3.14,56.05,.42,29.48,2.74,12.59,17.24,0,34.28,0h0Z"/></svg>