<?xml version="1.0" encoding="UTF-8"?><svg id="Layer_1" xmlns="http://www.w3.org/2000/svg" viewBox="0 0 39.91 38.17"><defs><style>.cls-1{fill:#00d858;}</style></defs><path class="cls-1" d="M3.03,18.87C2.99,9.92,13.16,1.51,21.92,3.01c8.76,1.5,15.46,8.52,15.11,17.54-.34,8.87-8.65,14.67-16.9,14.8-4.05,.06-8.5-.96-12.05-2.92-2.07-1.14-3.72-2.96-4.48-5.21-.8-2.39-.44-5.18-.86-7.66-.3-1.79-3.02-1.03-2.72,.75,.47,2.8,.18,5.65,1.1,8.38,.77,2.28,2.56,4.08,4.44,5.48,3.94,2.96,9.76,3.95,14.57,4.01,10.11,.12,18.97-7.43,19.73-17.63C40.65,9.97,31.64,1.31,21.53,.1,11.32-1.12,.16,8.53,.21,18.87c0,1.82,2.84,1.82,2.83,0h0Z"/><path class="cls-1" d="M19.05,9.33c.19,3.71,.21,7.42-.06,11.13-.13,1.8-.48,3.57-.7,5.36-.08,.68-.18,1.36-.18,2.04,0,.41-.31,1.56,.12,.74,.86,.11,1.72,.23,2.58,.34-.01-.07-.03-.13-.04-.2-.39-1.78-3.11-1.03-2.72,.75,.01,.07,.03,.13,.04,.2,.26,1.18,2.03,1.4,2.58,.34,.34-.65,.26-1.45,.27-2.17,.01-1.88,.52-3.72,.71-5.57,.44-4.31,.45-8.62,.24-12.95-.09-1.81-2.92-1.82-2.83,0h0Z"/><path class="cls-1" d="M8.69,20.4c3.51,.41,7.03,.47,10.57,.46,3.48,0,7.18,.48,10.63,.13,1.79-.18,1.81-3.01,0-2.83-3.16,.32-6.55-.15-9.74-.14-3.83,.02-7.64,0-11.45-.45-1.81-.21-1.79,2.62,0,2.83Z"/></svg>