<?xml version="1.0" encoding="UTF-8"?><svg id="Layer_1" xmlns="http://www.w3.org/2000/svg" viewBox="0 0 39.48 1.82"><defs><style>.cls-1{fill:#00d858;}</style></defs><path class="cls-1" d="M5.52,1.82C.88,1.82,.32,1.52,.08,1.09-.04,.86-.03,.6,.12,.38,.29,.13,.62,.07,.87,.23c.1,.07,.17,.16,.21,.27,.42,.12,1.75,.28,5.92,.23,3.36-.04,7.78-.2,12.05-.36C23.77,.21,28.65,.03,32.36,0c6-.04,6.72,.33,7.01,.77,.13,.21,.15,.46,.03,.69-.13,.27-.46,.38-.72,.24-.14-.07-.23-.19-.27-.32-.41-.13-1.79-.34-6.45-.3-3.64,.04-8.33,.21-12.87,.37-4.48,.16-9.1,.33-12.54,.36-.36,0-.71,0-1.03,0Z"/></svg>